<svg width="13" height="14" viewBox="0 0 13 14" fill="none" xmlns="http://www.w3.org/2000/svg">
<rect y="0.687744" width="12.6245" height="12.6245" rx="6.31224" fill="#FFDAD6"/>
<path d="M5.8581 9.80572V3.17054C5.8581 3.05766 5.90593 2.94941 5.99106 2.86959C6.0762 2.78977 6.19167 2.74493 6.31207 2.74493C6.43248 2.74493 6.54795 2.78977 6.63309 2.86959C6.71822 2.94941 6.76605 3.05766 6.76605 3.17054V9.80572L9.17214 7.55001C9.25951 7.48082 9.37151 7.4451 9.48576 7.44998C9.60001 7.45486 9.70808 7.49999 9.78837 7.57634C9.86867 7.65269 9.91526 7.75464 9.91885 7.8618C9.92243 7.96897 9.88274 8.07345 9.80771 8.15437L6.62986 11.1336C6.545 11.2116 6.4309 11.2553 6.31207 11.2553C6.19324 11.2553 6.07915 11.2116 5.99429 11.1336L2.81644 8.15437C2.74141 8.07345 2.70172 7.96897 2.7053 7.8618C2.70889 7.75464 2.75548 7.65269 2.83578 7.57634C2.91607 7.49999 3.02414 7.45486 3.13839 7.44998C3.25264 7.4451 3.36464 7.48082 3.45201 7.55001L5.8581 9.80572Z" fill="#FF8B74"/>
</svg>
