<svg width="14" height="14" viewBox="0 0 14 14" fill="none" xmlns="http://www.w3.org/2000/svg">
<rect x="13.4106" y="13.3123" width="12.6245" height="12.6245" rx="6.31224" transform="rotate(-180 13.4106 13.3123)" fill="#EBF9EB"/>
<path d="M7.55255 4.1944L7.55255 10.8296C7.55255 10.9425 7.50472 11.0507 7.41958 11.1305C7.33444 11.2103 7.21897 11.2552 7.09857 11.2552C6.97817 11.2552 6.8627 11.2103 6.77756 11.1305C6.69242 11.0507 6.64459 10.9425 6.64459 10.8296L6.64459 4.1944L4.23851 6.45011C4.15114 6.5193 4.03913 6.55502 3.92489 6.55014C3.81064 6.54526 3.70257 6.50013 3.62227 6.42378C3.54198 6.34743 3.49538 6.24549 3.4918 6.13832C3.48821 6.03115 3.5279 5.92667 3.60293 5.84575L6.78079 2.86652C6.86565 2.78854 6.97974 2.74485 7.09857 2.74485C7.2174 2.74485 7.33149 2.78854 7.41635 2.86652L10.5942 5.84575C10.6692 5.92667 10.7089 6.03115 10.7053 6.13832C10.7018 6.24549 10.6552 6.34743 10.5749 6.42378C10.4946 6.50013 10.3865 6.54526 10.2723 6.55014C10.158 6.55502 10.046 6.5193 9.95863 6.45011L7.55255 4.1944Z" fill="#46A758"/>
</svg>
